{"title":"Rock.N.Rolla.2008.BDRip.1080p.x264.Iou1","uid":8388266,"size":1423672685,"categoryP":"video","categoryS":"hd___movies","magnet":"?xt=urn:btih:164b380f4af27d2f35f35c7b7de496f8e95c8a1f&amp;dn=Rock.N.Rolla.2008.BDRip.1080p.x264.Iou1&amp;tr=udp%3A%2F%2Ftracker.openbittorrent.com%3A80&amp;tr=udp%3A%2F%2Fopen.demonii.com%3A1337&amp;tr=udp%3A%2F%2Ftracker.coppersurfer.tk%3A6969&amp;tr=udp%3A%2F%2Fexodus.desync.com%3A6969","seeders":6,"leechers":2,"uploader":"jaybee211","files":-1,"time":1366344307,"description":"Genre                                    : Action Comedy\nFormat                                   : MPEG-4\nFormat profile                           : Base Media / Version 2\nCodec ID                                 : mp42\nFile size                                : 1.33 GiB\nDuration                                 : 1h 54mn\nOverall bit rate mode                    : Variable\nOverall bit rate                         : 1 660 Kbps\n\nVideo\nID                                       : 1\nFormat                                   : AVC\nFormat/Info                              : Advanced Video Codec\nFormat profile                           : &lt;a class=&quot;__cf_email__&quot; href=&quot;/cdn-cgi/l/email-protection&quot; data-cfemail=&quot;93dbfaf4fbd3dfa7bda3&quot;&gt;[email&amp;#160;protected]&lt;/a&gt;&lt;script cf-hash='f9e31' type=&quot;text/javascript&quot;&gt;\n/* &lt;![CDATA[ */!function(){try{var t=&quot;currentScript&quot;in document?document.currentScript:function(){for(var t=document.getElementsByTagName(&quot;script&quot;),e=t.length;e--;)if(t[e].getAttribute(&quot;cf-hash&quot;))return t[e]}();if(t&amp;&amp;t.previousSibling){var e,r,n,i,c=t.previousSibling,a=c.getAttribute(&quot;data-cfemail&quot;);if(a){for(e=&quot;&quot;,r=parseInt(a.substr(0,2),16),n=2;a.length-n;n+=2)i=parseInt(a.substr(n,2),16)^r,e+=String.fromCharCode(i);e=document.createTextNode(e),c.parentNode.replaceChild(e,c)}}}catch(u){}}();/* ]]&gt; */&lt;/script&gt;\nFormat settings, CABAC                   : Yes\nFormat settings, ReFrames                : 4 frames\nCodec ID                                 : avc1\nCodec ID/Info                            : Advanced Video Coding\nDuration                                 : 1h 54mn\nBit rate mode                            : Variable\nBit rate                                 : 1 500 Kbps\nMaximum bit rate                         : 9 422 Kbps\nWidth                                    : 1 920 pixels\nHeight                                   : 800 pixels\nDisplay aspect ratio                     : 2.40:1\nFrame rate mode                          : Constant\nFrame rate                               : 23.976 fps\nColor space                              : YUV\nChroma subsampling                       : 4:2:0\nBit depth                                : 8 bits\nScan type                                : Progressive\nBits/(Pixel*Frame)                       : 0.041\nStream size                              : 1.20 GiB (90%)\nLanguage                                 : English\n\nAudio\nID                                       : 2\nFormat                                   : AAC\nFormat/Info                              : Advanced Audio Codec\nFormat profile                           : LC\nCodec ID                                 : 40\nDuration                                 : 1h 54mn\nBit rate mode                            : Variable\nBit rate                                 : 157 Kbps\nMaximum bit rate                         : 190 Kbps\nChannel(s)                               : 6 channels\nChannel positions                        : Front: L C R, Side: L R, LFE\nSampling rate                            : 48.0 KHz\nCompression mode                         : Lossy\nDelay relative to video                  : 42ms\nStream size                              : 128 MiB (9%)\nLanguage                                 : English\nSubtitles                                : English HardCoded When Needed\n\n\nIMDB: &lt;a href=&quot; http://www.imdb.com/title/tt1032755/&quot; rel=&quot;nofollow&quot; target=&quot;_NEW&quot;&gt; http://www.imdb.com/title/tt1032755/&lt;/a&gt;\n\nScreens: &lt;a href=&quot; http://bayimg.com/lALalaAEp&quot; rel=&quot;nofollow&quot; target=&quot;_NEW&quot;&gt; http://bayimg.com/lALalaAEp&lt;/a&gt;\n\n         &lt;a href=&quot; http://bayimg.com/laLAMaaEP&quot; rel=&quot;nofollow&quot; target=&quot;_NEW&quot;&gt; http://bayimg.com/laLAMaaEP&lt;/a&gt;\n\n         &lt;a href=&quot; http://bayimg.com/lALaoaaep&quot; rel=&quot;nofollow&quot; target=&quot;_NEW&quot;&gt; http://bayimg.com/lALaoaaep&lt;/a&gt;  \n\nStoryline\n\nLenny Cole, a London mob boss, puts the bite on all local real estate transactions. For substantial fees, he's helping Uri Omovich, a Russian developer. As a sign of good faith, Omovich loans Cole a valuable painting, promptly stolen off Cole's wall. While Cole's men, led by the dependable Archie, look for the canvas, three local petty criminals, the Wild Bunch, steal money from the Russian using inside information from his accountant, the lovely Stella. Meanwhile, a local drug-addled rocker, Johnny Quid, is reported drowned, and his connection to Cole is the key to unraveling the deceits and double crosses of life in the underworld.\n\nEnjoy.","torrent":{"xt":"urn:btih:164b380f4af27d2f35f35c7b7de496f8e95c8a1f","amp;dn":"Rock.N.Rolla.2008.BDRip.1080p.x264.Iou1","amp;tr":["udp%3A%2F%2Ftracker.openbittorrent.com%3A80","udp%3A%2F%2Fopen.demonii.com%3A1337","udp%3A%2F%2Ftracker.coppersurfer.tk%3A6969","udp%3A%2F%2Fexodus.desync.com%3A6969"],"infoHash":"164b380f4af27d2f35f35c7b7de496f8e95c8a1f","infoHashBuffer":{"type":"Buffer","data":[22,75,56,15,74,242,125,47,53,243,92,123,125,228,150,248,233,92,138,31]},"announce":[],"urlList":[]}}